<?xml version="1.0" encoding="utf-8"?>
<!-- Generator: Adobe Illustrator 22.0.1, SVG Export Plug-In . SVG Version: 6.00 Build 0)  -->
<svg version="1.1" id="Layer_1" xmlns="http://www.w3.org/2000/svg" xmlns:xlink="http://www.w3.org/1999/xlink" x="0px" y="0px"
	 viewBox="0 0 4.6 3.4" style="enable-background:new 0 0 4.6 3.4;" xml:space="preserve">
<style type="text/css">
	.st0{opacity:0.7;fill:#FFFFFF;enable-background:new    ;}
	.st1{fill:#FFFFFF;}
</style>
<g id="Layer_1_1_">
</g>
<g id="Layer_2_1_">
	<path class="st0" d="M0.2,2.4c0,0,0-0.7,0.8-0.7c0,0,0.3-0.9,1-0.6c0,0,0.1-0.5,0.6-0.5S3.2,1,3.2,1s0.2-0.3,0.5,0
		C4.1,1.3,4,1.7,4,1.7s0.4,0,0.4,0.6S3.6,3,3.6,3H0.8C0.8,3,0.3,3,0.2,2.4z"/>
</g>
<path class="st1" d="M1,1.3H0.3c0,0-0.1-0.5,0.7-0.5c0,0-0.2-0.6,0.4-0.6S2,0.5,2,0.5S1.8,0.7,1.8,0.8S1.2,0.8,1,1.3z"/>
</svg>
