<?xml version="1.0" encoding="utf-8"?>
<!-- Generator: Adobe Illustrator 22.0.1, SVG Export Plug-In . SVG Version: 6.00 Build 0)  -->
<svg version="1.1" id="Layer_1" xmlns="http://www.w3.org/2000/svg" xmlns:xlink="http://www.w3.org/1999/xlink" x="0px" y="0px"
	 viewBox="0 0 4.6 3.4" style="enable-background:new 0 0 4.6 3.4;" xml:space="preserve">
<style type="text/css">
	.st0{opacity:0.7;fill:#F9F7F7;enable-background:new    ;}
	.st1{fill:#F9F7F7;}
	.st2{fill:#F9F2F2;}
</style>
<g id="Layer_1_1_">
</g>
<g id="Layer_2_1_">
	<path class="st0" d="M0.5,2.5c0,0,0-0.6,0.8-0.6c0,0,0.3-0.7,0.9-0.5c0,0,0.1-0.4,0.6-0.4s0.6,0.3,0.6,0.3s0.2-0.2,0.5,0
		c0.4,0.2,0.3,0.6,0.3,0.6s0.4,0,0.4,0.5S3.7,3,3.7,3H1.1C1.1,3,0.6,3,0.5,2.5z"/>
</g>
<path class="st1" d="M1.3,1.8c0,0,0.2-0.6,0.8-0.5c0,0-0.5-0.6-0.9-0.1s0,0.8,0,0.8L1.3,1.8z"/>
<rect x="1.7" y="0.3" transform="matrix(0.9786 0.2059 -0.2059 0.9786 0.1557 -0.3448)" class="st1" width="0.1" height="0.6"/>
<rect x="0.9" y="0.5" transform="matrix(0.7071 -0.7071 0.7071 0.7071 -0.2932 0.873)" class="st1" width="0.1" height="0.6"/>
<rect x="1.2" y="0.2" transform="matrix(0.9761 -0.2172 0.2172 0.9761 -8.405340e-02 0.289)" class="st1" width="0.1" height="0.7"/>
<rect x="0.7" y="1.5" transform="matrix(-0.1311 -0.9914 0.9914 -0.1311 -0.8741 2.682)" class="st2" width="0.1" height="0.4"/>
<rect x="0.5" y="1" transform="matrix(8.524087e-02 -0.9964 0.9964 8.524087e-02 -0.8121 1.8086)" class="st1" width="0.1" height="0.7"/>
<rect x="0.6" y="0.7" transform="matrix(0.5 -0.866 0.866 0.5 -0.5838 1.0864)" class="st1" width="0.1" height="0.7"/>
<rect x="2.1" y="0.4" transform="matrix(0.7954 0.6061 -0.6061 0.7954 0.8695 -1.1292)" class="st1" width="0.1" height="0.6"/>
</svg>
