<?xml version="1.0" encoding="utf-8"?>
<!-- Generator: Adobe Illustrator 22.0.1, SVG Export Plug-In . SVG Version: 6.00 Build 0)  -->
<svg version="1.1" id="Layer_1" xmlns="http://www.w3.org/2000/svg" xmlns:xlink="http://www.w3.org/1999/xlink" x="0px" y="0px"
	 viewBox="0 0 76 139.7" style="enable-background:new 0 0 76 139.7;" xml:space="preserve">
<style type="text/css">
	.st0{fill:#08CCF9;}
</style>
<g id="Layer_1_1_" xmlns:sketch="http://www.bohemiancoding.com/sketch/ns">
	<title>flag</title>
	<desc>Created with Sketch.</desc>
	<g id="Page-1" sketch:type="MSPage">
		<g id="flag" sketch:type="MSLayerGroup">
			<rect id="Rectangle-path" y="59.8" sketch:type="MSShapeGroup" class="st0" width="7.5" height="79.7">
			</rect>
			<path id="Shape" sketch:type="MSShapeGroup" class="st0" d="M7,61.9c-4.1,0-7-3.2-7-6.9V6.9C0,2.9,3.3,0,7,0c1.1,0,1.8,0.4,3,0.7
				l61.8,27.2c2.6,1.1,4.4,3.6,4.1,6.5s-1.8,5.5-4.8,6.1l-61.9,21C8.6,61.9,7.9,61.9,7,61.9L7,61.9z M7.5,7.2v47.1l60.7-20.7
				L7.5,7.2L7.5,7.2z"/>
			<rect id="Rectangle-path_1_" x="14.9" y="9.1" sketch:type="MSShapeGroup" class="st0" width="7.5" height="43.4">
			</rect>
			<rect id="Rectangle-path_2_" x="29.7" y="12.7" sketch:type="MSShapeGroup" class="st0" width="7.5" height="36.2">
			</rect>
			<rect id="Rectangle-path_3_" x="44.6" y="23.5" sketch:type="MSShapeGroup" class="st0" width="7.5" height="18.2">
			</rect>
		</g>
	</g>
</g>
<g id="Layer_2_1_">
</g>
</svg>
