<?xml version="1.0" encoding="utf-8"?>
<!-- Generator: Adobe Illustrator 22.0.1, SVG Export Plug-In . SVG Version: 6.00 Build 0)  -->
<svg version="1.1" id="Layer_1" xmlns="http://www.w3.org/2000/svg" xmlns:xlink="http://www.w3.org/1999/xlink" x="0px" y="0px"
	 viewBox="0 0 4.6 3.4" style="enable-background:new 0 0 4.6 3.4;" xml:space="preserve">
<style type="text/css">
	.st0{opacity:1.000000e-02;}
	.st1{opacity:0.59;fill:#F9F9F9;enable-background:new    ;}
	.st2{fill:#F9F9F9;}
	.st3{opacity:0.29;fill:#F9F9F9;enable-background:new    ;}
</style>
<g id="Layer_1_1_" class="st0">
</g>
<g id="Layer_1_2_" class="st0">
</g>
<ellipse class="st1" cx="1.3" cy="1.2" rx="0.5" ry="0.5"/>
<rect x="1.3" y="0.5" transform="matrix(0.5 -0.866 0.866 0.5 -0.4093 1.7649)" class="st2" width="0.1" height="1.4"/>
<rect x="1.3" y="0.5" transform="matrix(0.8334 -0.5526 0.5526 0.8334 -0.4644 0.9273)" class="st2" width="0.1" height="1.4"/>
<rect x="0.7" y="1.1" transform="matrix(0.5188 -0.8549 0.8549 0.5188 -0.368 1.7384)" class="st2" width="1.4" height="0.1"/>
<rect x="1.2" y="0.5" class="st2" width="0.1" height="1.4"/>
<rect x="1.3" y="0.5" transform="matrix(6.256595e-02 -0.998 0.998 6.256595e-02 2.761482e-02 2.4928)" class="st2" width="0.1" height="1.4"/>
<rect x="0.7" y="1.2" transform="matrix(0.8999 -0.4362 0.4362 0.8999 -0.3953 0.7129)" class="st2" width="1.4" height="0.1"/>
<ellipse class="st2" cx="0.6" cy="0.8" rx="0.1" ry="0.1"/>
<ellipse class="st2" cx="0.9" cy="0.6" rx="0.1" ry="0.1"/>
<ellipse class="st2" cx="2" cy="1.2" rx="0.1" ry="0.1"/>
<ellipse class="st2" cx="1.9" cy="0.9" rx="0.1" ry="0.1"/>
<ellipse class="st2" cx="1.6" cy="0.6" rx="0.1" ry="0.1"/>
<ellipse class="st2" cx="1.4" cy="0.5" rx="0.1" ry="0.1"/>
<ellipse class="st2" cx="1.9" cy="1.5" rx="0.1" ry="0.1"/>
<ellipse class="st2" cx="1.7" cy="1.8" rx="0.1" ry="0.1"/>
<ellipse class="st2" cx="1.3" cy="1.9" rx="0.1" ry="0.1"/>
<ellipse class="st2" cx="0.9" cy="1.8" rx="0.1" ry="0.1"/>
<ellipse class="st2" cx="0.6" cy="1.5" rx="0.1" ry="0.1"/>
<ellipse class="st2" cx="0.6" cy="1.1" rx="0.1" ry="0.1"/>
<ellipse class="st3" cx="1.3" cy="1.2" rx="0.4" ry="0.4"/>
<ellipse class="st1" cx="1.9" cy="2.6" rx="0.4" ry="0.4"/>
<polygon class="st2" points="1.5,2.3 1.5,2.3 2.4,2.8 2.4,2.9 "/>
<polygon class="st2" points="1.6,2.1 1.7,2.1 2.2,3 2.2,3.1 "/>
<polygon class="st2" points="1.7,3 1.7,3 2.2,2.1 2.3,2.1 "/>
<rect x="1.9" y="2" class="st2" width="0.1" height="1.1"/>
<polygon class="st2" points="1.4,2.6 1.4,2.5 2.5,2.6 2.5,2.7 "/>
<polygon class="st2" points="1.5,2.8 1.5,2.8 2.4,2.3 2.4,2.4 "/>
<ellipse class="st2" cx="1.4" cy="2.3" rx="0.1" ry="0.1"/>
<ellipse class="st2" cx="1.6" cy="2.1" rx="0.1" ry="0.1"/>
<ellipse class="st2" cx="2.5" cy="2.6" rx="0.1" ry="0.1"/>
<ellipse class="st2" cx="2.4" cy="2.3" rx="0.1" ry="0.1"/>
<ellipse class="st2" cx="2.2" cy="2.1" rx="0.1" ry="0.1"/>
<ellipse class="st2" cx="2" cy="2" rx="0.1" ry="0.1"/>
<ellipse class="st2" cx="2.4" cy="2.8" rx="0.1" ry="0.1"/>
<ellipse class="st2" cx="2.2" cy="3" rx="0.1" ry="0.1"/>
<ellipse class="st2" cx="1.9" cy="3.1" rx="0.1" ry="0.1"/>
<ellipse class="st2" cx="1.6" cy="3" rx="0.1" ry="0.1"/>
<ellipse class="st2" cx="1.4" cy="2.8" rx="0.1" ry="0.1"/>
<ellipse class="st2" cx="1.4" cy="2.5" rx="0.1" ry="0.1"/>
<ellipse class="st3" cx="1.9" cy="2.6" rx="0.3" ry="0.3"/>
<ellipse class="st1" cx="3.5" cy="1.6" rx="0.5" ry="0.5"/>
<rect x="3.4" y="0.9" transform="matrix(0.5 -0.866 0.866 0.5 0.2992 3.8066)" class="st2" width="0.1" height="1.4"/>
<rect x="3.4" y="0.9" transform="matrix(0.8334 -0.5526 0.5526 0.8334 -0.3359 2.1681)" class="st2" width="0.1" height="1.4"/>
<rect x="2.8" y="1.6" transform="matrix(0.5188 -0.8549 0.8549 0.5188 0.3052 3.7489)" class="st2" width="1.4" height="0.1"/>
<rect x="3.4" y="0.9" class="st2" width="0.1" height="1.4"/>
<rect x="3.4" y="0.9" transform="matrix(6.256595e-02 -0.998 0.998 6.256595e-02 1.6108 4.9929)" class="st2" width="0.1" height="1.4"/>
<rect x="2.8" y="1.6" transform="matrix(0.8999 -0.4362 0.4362 0.8999 -0.3604 1.6794)" class="st2" width="1.4" height="0.1"/>
<ellipse class="st2" cx="2.8" cy="1.2" rx="0.1" ry="0.1"/>
<ellipse class="st2" cx="3.1" cy="1" rx="0.1" ry="0.1"/>
<ellipse class="st2" cx="4.2" cy="1.6" rx="0.1" ry="0.1"/>
<ellipse class="st2" cx="4.1" cy="1.3" rx="0.1" ry="0.1"/>
<ellipse class="st2" cx="3.8" cy="1" rx="0.1" ry="0.1"/>
<ellipse class="st2" cx="3.5" cy="0.9" rx="0.1" ry="0.1"/>
<ellipse class="st2" cx="4.1" cy="1.9" rx="0.1" ry="0.1"/>
<ellipse class="st2" cx="3.9" cy="2.2" rx="0.1" ry="0.1"/>
<ellipse class="st2" cx="3.5" cy="2.3" rx="0.1" ry="0.1"/>
<ellipse class="st2" cx="3.1" cy="2.2" rx="0.1" ry="0.1"/>
<ellipse class="st2" cx="2.8" cy="1.9" rx="0.1" ry="0.1"/>
<ellipse class="st2" cx="2.8" cy="1.5" rx="0.1" ry="0.1"/>
<ellipse class="st3" cx="3.5" cy="1.6" rx="0.4" ry="0.4"/>
</svg>
